<?xml version="1.0" encoding="UTF-8"?>
<svg id="Layer_1" data-name="Layer 1" xmlns="http://www.w3.org/2000/svg" xmlns:xlink="http://www.w3.org/1999/xlink" viewBox="0 0 195.74 138.64">
  <defs>
    <style>
      .cls-1 {
        fill: url(#linear-gradient-3);
      }

      .cls-2 {
        fill: url(#linear-gradient-2);
      }

      .cls-3 {
        fill: url(#linear-gradient);
      }
    </style>
    <linearGradient id="linear-gradient" x1="0" y1="69.32" x2="222.27" y2="69.32" gradientUnits="userSpaceOnUse">
      <stop offset=".02" stop-color="#ff5e31"/>
      <stop offset=".84" stop-color="#ffd400"/>
    </linearGradient>
    <linearGradient id="linear-gradient-2" x1="82.5" y1="69.32" x2="195.74" y2="69.32" gradientUnits="userSpaceOnUse">
      <stop offset=".02" stop-color="#002c62"/>
      <stop offset=".69" stop-color="#0046ab"/>
    </linearGradient>
    <linearGradient id="linear-gradient-3" x1="158.5" y1="73.59" x2="29.18" y2="73.59" gradientUnits="userSpaceOnUse">
      <stop offset=".16" stop-color="#ffb000"/>
      <stop offset="1" stop-color="#fcee93"/>
    </linearGradient>
  </defs>
  <path class="cls-3" d="M90.41,121.11l-.44-.56s-.04-.05-.06-.08l-21.39-27.22c-.48-.61-.74-1.33-.8-2.06,0-.01,0-.02,0-.04-.02-.23-.01-.46.02-.69,0,0,0-.01,0-.02.01-.08.04-.16.05-.25.03-.15.05-.3.1-.45.03-.11.09-.21.13-.31.05-.12.09-.24.16-.36.06-.12.15-.22.22-.33.06-.09.12-.19.19-.27.11-.13.23-.24.36-.36.05-.05.1-.11.15-.15.01-.01.03-.02.04-.04,0,0,.01-.01.02-.02.05-.04.1-.08.15-.12.18-.14.35-.29.53-.44l.23-.19c.39-.33.77-.66,1.14-1,.08-.07.15-.14.22-.2.05-.05.1-.09.15-.14.29-.27.56-.53.82-.8.03-.03.06-.06.09-.09.16-.16.32-.32.48-.49.16-.17.31-.33.47-.5.07-.07.14-.15.21-.22.19-.21.39-.43.58-.65.17-.19.33-.38.49-.58.23-.28.47-.57.69-.86.1-.13.21-.26.31-.39h0c3-3.96,5.1-8.36,6.29-12.94.01-.05.02-.09.03-.14.1-.41.2-.82.29-1.23.03-.12.05-.24.07-.37.07-.34.14-.67.2-1.01.03-.18.06-.36.09-.54.05-.28.09-.57.13-.85.03-.23.06-.46.08-.7.03-.23.06-.47.08-.7.03-.29.05-.57.07-.86.01-.18.03-.36.04-.54.02-.34.03-.69.04-1.03,0-.12.01-.25.02-.37,0-.42.01-.84,0-1.27,0-.05,0-.09,0-.14-.07-4.74-1.07-9.51-3.05-14.06h0c-.07-.16-.14-.31-.21-.46-.15-.34-.31-.67-.47-1-.11-.23-.23-.45-.34-.68-.13-.26-.27-.52-.41-.77-.05-.09-.1-.18-.15-.27-.11-.2-.22-.39-.33-.59-.12-.2-.23-.39-.35-.59-.02-.04-.05-.07-.07-.11-.2-.32-.4-.64-.61-.97-.04-.06-.08-.12-.12-.18-.05-.08-.1-.15-.16-.25-.28-.41-.57-.83-.87-1.24l-.18-.24c-.13-.18-.27-.37-.41-.55-.04-.05-.08-.1-.12-.15,0,0,0-.02-.02-.02-.01-.02-.02-.03-.03-.05-.04-.06-.07-.12-.11-.19-.09-.14-.19-.28-.26-.43-.05-.1-.08-.21-.12-.31-.05-.13-.1-.25-.14-.38-.03-.13-.05-.25-.07-.38-.02-.11-.05-.22-.05-.34-.01-.15,0-.31,0-.46,0-.08,0-.17,0-.25,0,0,0-.01,0-.02.03-.23.08-.46.15-.68,0-.01,0-.02,0-.04.22-.69.65-1.33,1.26-1.81l6.52-5.12c-6.83-6.04-13.77-13.74-22.49-24.4-1.01-1.23-2.6-1.81-4.16-1.52-1.56.3-2.84,1.43-3.33,2.95C39.76,42.22,32.55,51.06,1.45,78.75c-1.65,1.47-2.01,4.04-.49,6,.48.61,1.15,1.05,1.87,1.32l1.32.48c37.67,13.79,49.04,17.95,74.42,50.43,1.01,1.29,2.65,1.9,4.25,1.59l.14-.03c1.56-.37,2.8-1.56,3.23-3.1,1.46-5.27,2.87-9.97,4.29-14.24h0s-.04-.06-.06-.08Z"/>
  <path class="cls-2" d="M195.6,46.75s0-.01,0-.02c-.04-.14-.1-.28-.16-.41-.13-.33-.29-.64-.51-.93l-21.37-27.21s-.04-.05-.07-.08l-.45-.57s-.05-.06-.07-.08l-.97-1.23c-.98-1.24-2.29-2.07-3.7-2.46-.07-.02-.14-.04-.21-.06-.13-.03-.26-.06-.4-.08-.06-.01-.12-.03-.18-.04-.04,0-.09,0-.13-.01-.05,0-.1-.02-.15-.02-.09-.01-.17-.01-.26-.02-.11,0-.21-.02-.32-.02-.13,0-.25,0-.38,0-.11,0-.23,0-.34,0-.12,0-.23.02-.35.03-.12.01-.24.02-.36.04-.11.02-.23.05-.34.07-.12.03-.24.05-.35.08-.13.04-.26.08-.39.12-.09.03-.19.06-.28.09-.21.08-.42.17-.62.27,0,0-.02,0-.03.01-.43.21-.85.48-1.25.79l-1.24.98s-.05.04-.07.06l-.57.45s-.05.04-.07.05l-11.57,9.09c-7,5.46-17.1,4.25-22.61-2.71l-9.08-11.56s-.04-.05-.07-.08l-.45-.57s-.05-.06-.07-.09l-.91-1.16c-.54-.69-1.19-1.25-1.89-1.68-.05-.03-.1-.06-.15-.09-.09-.05-.18-.1-.27-.15-.69-.38-1.45-.66-2.24-.79-1.99-.32-3.97.2-5.55,1.44l-.03.02s-.03.02-.04.03l-1.18.92s-.05.04-.07.05l-.56.44s-.05.04-.08.06l-20.7,16.26c13.63,12.05,26.87,17.5,53.21,26.56,2.12.73,3.45,3.02,2.74,5.44-.22.76-.71,1.44-1.31,1.96-27.68,23.84-37.32,33.03-46.66,61.25l.92,1.17s.02.02.03.04l.02.03c1.24,1.57,3.04,2.55,5.05,2.71.8.07,1.6-.03,2.36-.23.1-.03.2-.05.3-.08.05-.02.11-.03.16-.05.79-.26,1.55-.64,2.24-1.19l1.15-.91s.06-.04.09-.07l.57-.45s.05-.04.08-.06l11.56-9.08c7-5.46,17.1-4.25,22.6,2.72l9.09,11.57s.04.04.06.07l.45.57s.04.05.06.07l.98,1.24c.31.4.66.75,1.03,1.06,0,0,.02.01.02.02.17.15.35.28.54.41.08.05.16.1.25.15.12.07.23.15.36.22.11.06.21.11.32.16.1.05.21.1.31.15.11.05.23.09.34.13.11.04.22.08.33.12.11.03.22.06.33.09.12.03.25.06.37.09.1.02.21.04.31.05.08.01.17.03.25.04.05,0,.1,0,.15.01.04,0,.09.01.13.02.06,0,.12,0,.18,0,.14,0,.27.01.41.01.07,0,.15,0,.22,0,1.47-.05,2.94-.54,4.18-1.51l1.23-.97s.06-.04.09-.07l.57-.45s.05-.04.08-.06l27.21-21.37c.28-.22.51-.49.72-.78.09-.12.18-.23.25-.36,0,0,0-.01,0-.02.23-.42.39-.89.45-1.38.12-1-.17-2.01-.79-2.8-.03-.04-.06-.07-.09-.11-.15-.19-.29-.39-.44-.59l-.18-.25c-.3-.41-.59-.82-.86-1.22l-.13-.19c-.06-.09-.11-.17-.17-.26-.21-.31-.41-.63-.6-.95-.02-.03-.03-.06-.05-.08-.13-.21-.25-.41-.38-.63-.11-.19-.22-.39-.33-.58-.05-.09-.1-.17-.14-.26-.14-.27-.29-.53-.43-.81-.11-.22-.23-.44-.34-.67-.18-.35-.34-.71-.5-1.07-.04-.1-.09-.2-.14-.3l-.03-.07c-2.18-5.01-3.17-10.29-3.05-15.49,0-.01,0-.02,0-.04.01-.45.03-.91.06-1.36,0-.13.02-.26.03-.4.02-.33.05-.67.08-1,.02-.23.05-.46.08-.69.03-.23.05-.46.08-.69.05-.33.1-.66.16-.99.02-.13.04-.26.06-.39.08-.45.17-.89.26-1.33,0-.01,0-.02,0-.04,1.11-5.08,3.33-9.98,6.63-14.33l.05-.06c.07-.09.13-.17.2-.26.24-.31.49-.62.74-.92.16-.19.32-.38.49-.57.2-.23.41-.46.61-.68.07-.07.14-.15.21-.22.15-.16.3-.32.45-.48.17-.18.34-.35.51-.52.02-.02.05-.05.07-.07.26-.26.53-.52.81-.78.08-.07.16-.14.23-.22l.16-.15c.36-.33.74-.66,1.13-.98l.24-.2c.19-.16.37-.31.57-.47.04-.03.07-.06.11-.09.8-.62,1.31-1.53,1.43-2.54.06-.49.02-.98-.11-1.45Z"/>
  <path class="cls-1" d="M137.13,59.94c.6-.52,1.09-1.19,1.31-1.96.71-2.42-.62-4.71-2.74-5.44-26.34-9.06-39.58-14.51-53.21-26.56l-6.52,5.12c-.61.48-1.04,1.12-1.26,1.81,0,.01,0,.02,0,.04-.07.22-.12.45-.15.68,0,0,0,.01,0,.02,0,.08,0,.17,0,.25,0,.15-.02.31,0,.46,0,.11.03.22.05.34.02.13.03.26.07.38.03.13.09.25.14.38.04.1.07.21.12.31.07.15.17.29.26.43.04.06.07.13.11.19,0,.01.02.03.03.05,0,0,0,.02.02.02.04.05.08.1.12.15.14.18.28.36.41.55l.18.24c.3.41.59.82.87,1.24.06.09.11.17.16.25.04.06.08.12.12.18.22.33.42.65.61.97.02.04.05.07.07.11.12.19.24.39.35.59.12.2.23.4.33.59.05.09.1.18.15.27.14.25.27.51.41.77.12.23.23.45.34.68.16.33.32.66.47,1,.07.15.14.3.21.46h0c1.98,4.56,2.98,9.33,3.05,14.07,0,.05,0,.09,0,.14,0,.42,0,.84,0,1.27,0,.12-.01.25-.02.37-.01.34-.02.69-.04,1.03-.01.18-.03.36-.04.54-.02.29-.04.57-.07.86-.02.23-.05.47-.08.7-.03.23-.05.47-.08.7-.04.28-.09.57-.13.85-.03.18-.05.36-.09.54-.06.34-.13.68-.2,1.01-.03.12-.05.24-.07.37-.09.41-.19.82-.29,1.23-.01.04-.02.09-.03.14-1.19,4.58-3.29,8.99-6.29,12.94h0c-.1.14-.21.27-.31.4-.23.29-.46.58-.69.86-.16.19-.33.39-.49.58-.19.22-.39.44-.58.65-.07.08-.14.15-.21.22-.15.17-.31.33-.47.5-.16.17-.32.33-.48.49-.03.03-.06.06-.09.09-.27.26-.54.53-.82.8-.05.05-.1.09-.15.14-.07.06-.14.13-.22.2-.37.34-.75.67-1.14,1l-.23.19c-.17.15-.35.29-.53.44-.05.04-.1.08-.15.12,0,0-.01.01-.02.02-.02.01-.03.02-.04.04-.06.05-.1.1-.15.15-.12.11-.25.23-.36.36-.07.09-.13.18-.19.27-.08.11-.16.22-.22.33-.06.12-.11.24-.16.36-.04.1-.1.21-.13.31-.05.15-.07.3-.1.45-.02.08-.04.16-.05.25,0,0,0,.01,0,.02-.03.23-.03.46-.02.69,0,.01,0,.03,0,.04.05.73.32,1.44.8,2.06l21.39,27.22s.04.05.06.08l.44.56s.04.04.06.07h0c9.34-28.21,18.98-37.4,46.66-61.24Z"/>
</svg>